<mxfile host="app.diagrams.net" modified="2023-09-02T06:24:05.348Z" agent="Mozilla/5.0 (Windows NT 10.0; Win64; x64) AppleWebKit/537.36 (KHTML, like Gecko) Chrome/116.0.0.0 Safari/537.36" etag="FK9cTyUj1YFIiznfa9Vy" version="21.6.6" type="device">
  <diagram name="Page-1" id="YhAIzcbxWV9tvvUhJrOA">
    <mxGraphModel dx="2317" dy="813" grid="1" gridSize="10" guides="1" tooltips="1" connect="1" arrows="1" fold="1" page="1" pageScale="1" pageWidth="850" pageHeight="1100" math="0" shadow="0">
      <root>
        <mxCell id="0" />
        <mxCell id="1" parent="0" />
        <mxCell id="5PY2zAJ-nupySFWcDtGg-1" value="admin" style="rounded=0;whiteSpace=wrap;html=1;strokeWidth=4;fontStyle=1;fontSize=14;" vertex="1" parent="1">
          <mxGeometry x="210" y="180" width="120" height="60" as="geometry" />
        </mxCell>
        <mxCell id="5PY2zAJ-nupySFWcDtGg-2" value="admin_id" style="ellipse;whiteSpace=wrap;html=1;strokeWidth=4;fontStyle=1;fontSize=14;" vertex="1" parent="1">
          <mxGeometry x="350" y="185" width="100" height="50" as="geometry" />
        </mxCell>
        <mxCell id="5PY2zAJ-nupySFWcDtGg-3" value="name" style="ellipse;whiteSpace=wrap;html=1;strokeWidth=4;fontStyle=1;fontSize=14;" vertex="1" parent="1">
          <mxGeometry x="350" y="100" width="100" height="50" as="geometry" />
        </mxCell>
        <mxCell id="5PY2zAJ-nupySFWcDtGg-4" value="password" style="ellipse;whiteSpace=wrap;html=1;strokeWidth=4;fontStyle=1;fontSize=14;" vertex="1" parent="1">
          <mxGeometry x="220" y="100" width="100" height="50" as="geometry" />
        </mxCell>
        <mxCell id="5PY2zAJ-nupySFWcDtGg-9" value="created_at" style="ellipse;whiteSpace=wrap;html=1;strokeWidth=4;fontStyle=1;fontSize=14;" vertex="1" parent="1">
          <mxGeometry x="80" y="100" width="100" height="50" as="geometry" />
        </mxCell>
        <mxCell id="5PY2zAJ-nupySFWcDtGg-10" value="update_at" style="ellipse;whiteSpace=wrap;html=1;strokeWidth=4;fontStyle=1;fontSize=14;" vertex="1" parent="1">
          <mxGeometry x="70" y="185" width="100" height="50" as="geometry" />
        </mxCell>
        <mxCell id="5PY2zAJ-nupySFWcDtGg-11" value="" style="endArrow=none;html=1;rounded=0;exitX=1;exitY=0.5;exitDx=0;exitDy=0;entryX=0;entryY=0.5;entryDx=0;entryDy=0;strokeWidth=4;fontStyle=1;fontSize=14;" edge="1" parent="1" source="5PY2zAJ-nupySFWcDtGg-10" target="5PY2zAJ-nupySFWcDtGg-1">
          <mxGeometry width="50" height="50" relative="1" as="geometry">
            <mxPoint x="430" y="290" as="sourcePoint" />
            <mxPoint x="480" y="240" as="targetPoint" />
          </mxGeometry>
        </mxCell>
        <mxCell id="5PY2zAJ-nupySFWcDtGg-12" value="" style="endArrow=none;html=1;rounded=0;exitX=0.5;exitY=1;exitDx=0;exitDy=0;entryX=0.25;entryY=0;entryDx=0;entryDy=0;strokeWidth=4;fontStyle=1;fontSize=14;" edge="1" parent="1" source="5PY2zAJ-nupySFWcDtGg-9" target="5PY2zAJ-nupySFWcDtGg-1">
          <mxGeometry width="50" height="50" relative="1" as="geometry">
            <mxPoint x="430" y="290" as="sourcePoint" />
            <mxPoint x="480" y="240" as="targetPoint" />
          </mxGeometry>
        </mxCell>
        <mxCell id="5PY2zAJ-nupySFWcDtGg-13" value="" style="endArrow=none;html=1;rounded=0;exitX=0.5;exitY=1;exitDx=0;exitDy=0;entryX=0.5;entryY=0;entryDx=0;entryDy=0;strokeWidth=4;fontStyle=1;fontSize=14;" edge="1" parent="1" source="5PY2zAJ-nupySFWcDtGg-4" target="5PY2zAJ-nupySFWcDtGg-1">
          <mxGeometry width="50" height="50" relative="1" as="geometry">
            <mxPoint x="430" y="290" as="sourcePoint" />
            <mxPoint x="480" y="240" as="targetPoint" />
          </mxGeometry>
        </mxCell>
        <mxCell id="5PY2zAJ-nupySFWcDtGg-14" value="" style="endArrow=none;html=1;rounded=0;exitX=0.5;exitY=1;exitDx=0;exitDy=0;entryX=0.75;entryY=0;entryDx=0;entryDy=0;strokeWidth=4;fontStyle=1;fontSize=14;" edge="1" parent="1" source="5PY2zAJ-nupySFWcDtGg-3" target="5PY2zAJ-nupySFWcDtGg-1">
          <mxGeometry width="50" height="50" relative="1" as="geometry">
            <mxPoint x="430" y="290" as="sourcePoint" />
            <mxPoint x="480" y="240" as="targetPoint" />
          </mxGeometry>
        </mxCell>
        <mxCell id="5PY2zAJ-nupySFWcDtGg-15" value="" style="endArrow=none;html=1;rounded=0;exitX=0;exitY=0.5;exitDx=0;exitDy=0;entryX=1;entryY=0.5;entryDx=0;entryDy=0;strokeWidth=4;fontStyle=1;fontSize=14;" edge="1" parent="1" source="5PY2zAJ-nupySFWcDtGg-2" target="5PY2zAJ-nupySFWcDtGg-1">
          <mxGeometry width="50" height="50" relative="1" as="geometry">
            <mxPoint x="430" y="290" as="sourcePoint" />
            <mxPoint x="480" y="240" as="targetPoint" />
          </mxGeometry>
        </mxCell>
        <mxCell id="5PY2zAJ-nupySFWcDtGg-16" value="chasier" style="rounded=0;whiteSpace=wrap;html=1;strokeWidth=4;fontStyle=1;fontSize=14;" vertex="1" parent="1">
          <mxGeometry x="543" y="435" width="120" height="60" as="geometry" />
        </mxCell>
        <mxCell id="5PY2zAJ-nupySFWcDtGg-17" value="chasier_id" style="ellipse;whiteSpace=wrap;html=1;strokeWidth=4;fontStyle=1;fontSize=14;" vertex="1" parent="1">
          <mxGeometry x="373" y="330" width="100" height="50" as="geometry" />
        </mxCell>
        <mxCell id="5PY2zAJ-nupySFWcDtGg-18" value="name" style="ellipse;whiteSpace=wrap;html=1;strokeWidth=4;fontStyle=1;fontSize=14;" vertex="1" parent="1">
          <mxGeometry x="593" y="310" width="100" height="50" as="geometry" />
        </mxCell>
        <mxCell id="5PY2zAJ-nupySFWcDtGg-19" value="password" style="ellipse;whiteSpace=wrap;html=1;strokeWidth=4;fontStyle=1;fontSize=14;" vertex="1" parent="1">
          <mxGeometry x="473" y="310" width="100" height="50" as="geometry" />
        </mxCell>
        <mxCell id="5PY2zAJ-nupySFWcDtGg-20" value="created_at" style="ellipse;whiteSpace=wrap;html=1;strokeWidth=4;fontStyle=1;fontSize=14;" vertex="1" parent="1">
          <mxGeometry x="723" y="440" width="100" height="50" as="geometry" />
        </mxCell>
        <mxCell id="5PY2zAJ-nupySFWcDtGg-21" value="update_at" style="ellipse;whiteSpace=wrap;html=1;strokeWidth=4;fontStyle=1;fontSize=14;" vertex="1" parent="1">
          <mxGeometry x="723" y="370" width="100" height="50" as="geometry" />
        </mxCell>
        <mxCell id="5PY2zAJ-nupySFWcDtGg-22" value="" style="endArrow=none;html=1;rounded=0;exitX=0;exitY=0.5;exitDx=0;exitDy=0;entryX=1;entryY=0;entryDx=0;entryDy=0;strokeWidth=4;fontStyle=1;fontSize=14;" edge="1" parent="1" source="5PY2zAJ-nupySFWcDtGg-21" target="5PY2zAJ-nupySFWcDtGg-16">
          <mxGeometry width="50" height="50" relative="1" as="geometry">
            <mxPoint x="763" y="540" as="sourcePoint" />
            <mxPoint x="813" y="490" as="targetPoint" />
          </mxGeometry>
        </mxCell>
        <mxCell id="5PY2zAJ-nupySFWcDtGg-23" value="" style="endArrow=none;html=1;rounded=0;entryX=1;entryY=0.5;entryDx=0;entryDy=0;exitX=0;exitY=0.5;exitDx=0;exitDy=0;strokeWidth=4;fontStyle=1;fontSize=14;" edge="1" parent="1" source="5PY2zAJ-nupySFWcDtGg-20" target="5PY2zAJ-nupySFWcDtGg-16">
          <mxGeometry width="50" height="50" relative="1" as="geometry">
            <mxPoint x="598" y="550" as="sourcePoint" />
            <mxPoint x="813" y="490" as="targetPoint" />
          </mxGeometry>
        </mxCell>
        <mxCell id="5PY2zAJ-nupySFWcDtGg-24" value="" style="endArrow=none;html=1;rounded=0;exitX=0.5;exitY=1;exitDx=0;exitDy=0;entryX=0.5;entryY=0;entryDx=0;entryDy=0;strokeWidth=4;fontStyle=1;fontSize=14;" edge="1" parent="1" source="5PY2zAJ-nupySFWcDtGg-19" target="5PY2zAJ-nupySFWcDtGg-16">
          <mxGeometry width="50" height="50" relative="1" as="geometry">
            <mxPoint x="763" y="540" as="sourcePoint" />
            <mxPoint x="813" y="490" as="targetPoint" />
          </mxGeometry>
        </mxCell>
        <mxCell id="5PY2zAJ-nupySFWcDtGg-25" value="" style="endArrow=none;html=1;rounded=0;exitX=0.5;exitY=1;exitDx=0;exitDy=0;entryX=0.75;entryY=0;entryDx=0;entryDy=0;strokeWidth=4;fontStyle=1;fontSize=14;" edge="1" parent="1" source="5PY2zAJ-nupySFWcDtGg-18" target="5PY2zAJ-nupySFWcDtGg-16">
          <mxGeometry width="50" height="50" relative="1" as="geometry">
            <mxPoint x="763" y="540" as="sourcePoint" />
            <mxPoint x="813" y="490" as="targetPoint" />
          </mxGeometry>
        </mxCell>
        <mxCell id="5PY2zAJ-nupySFWcDtGg-26" value="" style="endArrow=none;html=1;rounded=0;exitX=0.5;exitY=1;exitDx=0;exitDy=0;entryX=0.25;entryY=0;entryDx=0;entryDy=0;strokeWidth=4;fontStyle=1;fontSize=14;" edge="1" parent="1" source="5PY2zAJ-nupySFWcDtGg-17" target="5PY2zAJ-nupySFWcDtGg-16">
          <mxGeometry width="50" height="50" relative="1" as="geometry">
            <mxPoint x="763" y="540" as="sourcePoint" />
            <mxPoint x="813" y="490" as="targetPoint" />
          </mxGeometry>
        </mxCell>
        <mxCell id="5PY2zAJ-nupySFWcDtGg-27" value="membuat" style="rhombus;whiteSpace=wrap;html=1;strokeWidth=4;fontStyle=1;fontSize=14;" vertex="1" parent="1">
          <mxGeometry x="185" y="425" width="170" height="80" as="geometry" />
        </mxCell>
        <mxCell id="5PY2zAJ-nupySFWcDtGg-31" value="menu" style="rounded=0;whiteSpace=wrap;html=1;strokeWidth=4;fontStyle=1;fontSize=14;" vertex="1" parent="1">
          <mxGeometry x="-85" y="440" width="120" height="60" as="geometry" />
        </mxCell>
        <mxCell id="5PY2zAJ-nupySFWcDtGg-32" value="menu_id" style="ellipse;whiteSpace=wrap;html=1;strokeWidth=4;fontStyle=1;fontSize=14;" vertex="1" parent="1">
          <mxGeometry x="-255" y="445" width="100" height="50" as="geometry" />
        </mxCell>
        <mxCell id="5PY2zAJ-nupySFWcDtGg-33" value="description" style="ellipse;whiteSpace=wrap;html=1;strokeWidth=4;fontStyle=1;fontSize=14;" vertex="1" parent="1">
          <mxGeometry x="-145" y="360" width="100" height="50" as="geometry" />
        </mxCell>
        <mxCell id="5PY2zAJ-nupySFWcDtGg-34" value="menu_name" style="ellipse;whiteSpace=wrap;html=1;strokeWidth=4;fontStyle=1;fontSize=14;" vertex="1" parent="1">
          <mxGeometry x="-255" y="360" width="100" height="50" as="geometry" />
        </mxCell>
        <mxCell id="5PY2zAJ-nupySFWcDtGg-35" value="created_at" style="ellipse;whiteSpace=wrap;html=1;strokeWidth=4;fontStyle=1;fontSize=14;" vertex="1" parent="1">
          <mxGeometry x="-255" y="530" width="100" height="50" as="geometry" />
        </mxCell>
        <mxCell id="5PY2zAJ-nupySFWcDtGg-36" value="update_at" style="ellipse;whiteSpace=wrap;html=1;strokeWidth=4;fontStyle=1;fontSize=14;" vertex="1" parent="1">
          <mxGeometry x="-145" y="530" width="100" height="50" as="geometry" />
        </mxCell>
        <mxCell id="5PY2zAJ-nupySFWcDtGg-37" value="" style="endArrow=none;html=1;rounded=0;exitX=0.5;exitY=0;exitDx=0;exitDy=0;entryX=0.25;entryY=1;entryDx=0;entryDy=0;strokeWidth=4;fontStyle=1;fontSize=14;" edge="1" parent="1" source="5PY2zAJ-nupySFWcDtGg-36" target="5PY2zAJ-nupySFWcDtGg-31">
          <mxGeometry width="50" height="50" relative="1" as="geometry">
            <mxPoint x="135" y="550" as="sourcePoint" />
            <mxPoint x="185" y="500" as="targetPoint" />
          </mxGeometry>
        </mxCell>
        <mxCell id="5PY2zAJ-nupySFWcDtGg-38" value="" style="endArrow=none;html=1;rounded=0;entryX=0;entryY=1;entryDx=0;entryDy=0;exitX=0.5;exitY=0;exitDx=0;exitDy=0;strokeWidth=4;fontStyle=1;fontSize=14;" edge="1" parent="1" source="5PY2zAJ-nupySFWcDtGg-35" target="5PY2zAJ-nupySFWcDtGg-31">
          <mxGeometry width="50" height="50" relative="1" as="geometry">
            <mxPoint x="-30" y="560" as="sourcePoint" />
            <mxPoint x="185" y="500" as="targetPoint" />
          </mxGeometry>
        </mxCell>
        <mxCell id="5PY2zAJ-nupySFWcDtGg-39" value="" style="endArrow=none;html=1;rounded=0;exitX=0.5;exitY=1;exitDx=0;exitDy=0;entryX=0;entryY=0;entryDx=0;entryDy=0;strokeWidth=4;fontStyle=1;fontSize=14;" edge="1" parent="1" source="5PY2zAJ-nupySFWcDtGg-34" target="5PY2zAJ-nupySFWcDtGg-31">
          <mxGeometry width="50" height="50" relative="1" as="geometry">
            <mxPoint x="135" y="550" as="sourcePoint" />
            <mxPoint x="185" y="500" as="targetPoint" />
          </mxGeometry>
        </mxCell>
        <mxCell id="5PY2zAJ-nupySFWcDtGg-40" value="" style="endArrow=none;html=1;rounded=0;exitX=0.5;exitY=1;exitDx=0;exitDy=0;entryX=0.25;entryY=0;entryDx=0;entryDy=0;strokeWidth=4;fontStyle=1;fontSize=14;" edge="1" parent="1" source="5PY2zAJ-nupySFWcDtGg-33" target="5PY2zAJ-nupySFWcDtGg-31">
          <mxGeometry width="50" height="50" relative="1" as="geometry">
            <mxPoint x="135" y="550" as="sourcePoint" />
            <mxPoint x="185" y="500" as="targetPoint" />
          </mxGeometry>
        </mxCell>
        <mxCell id="5PY2zAJ-nupySFWcDtGg-41" value="" style="endArrow=none;html=1;rounded=0;entryX=0;entryY=0.5;entryDx=0;entryDy=0;strokeWidth=4;fontStyle=1;fontSize=14;" edge="1" parent="1" target="5PY2zAJ-nupySFWcDtGg-31">
          <mxGeometry width="50" height="50" relative="1" as="geometry">
            <mxPoint x="-155" y="470" as="sourcePoint" />
            <mxPoint x="185" y="500" as="targetPoint" />
          </mxGeometry>
        </mxCell>
        <mxCell id="5PY2zAJ-nupySFWcDtGg-42" value="price" style="ellipse;whiteSpace=wrap;html=1;strokeWidth=4;fontStyle=1;fontSize=14;" vertex="1" parent="1">
          <mxGeometry x="-25" y="360" width="100" height="50" as="geometry" />
        </mxCell>
        <mxCell id="5PY2zAJ-nupySFWcDtGg-46" value="" style="endArrow=none;html=1;rounded=0;entryX=0.5;entryY=1;entryDx=0;entryDy=0;exitX=0.5;exitY=0;exitDx=0;exitDy=0;strokeWidth=4;fontStyle=1;fontSize=14;" edge="1" parent="1" source="5PY2zAJ-nupySFWcDtGg-31" target="5PY2zAJ-nupySFWcDtGg-42">
          <mxGeometry width="50" height="50" relative="1" as="geometry">
            <mxPoint x="105" y="490" as="sourcePoint" />
            <mxPoint x="155" y="440" as="targetPoint" />
          </mxGeometry>
        </mxCell>
        <mxCell id="5PY2zAJ-nupySFWcDtGg-48" value="" style="endArrow=none;html=1;rounded=0;entryX=0.5;entryY=1;entryDx=0;entryDy=0;exitX=0.5;exitY=0;exitDx=0;exitDy=0;strokeWidth=4;fontStyle=1;fontSize=14;" edge="1" parent="1" source="5PY2zAJ-nupySFWcDtGg-27" target="5PY2zAJ-nupySFWcDtGg-1">
          <mxGeometry width="50" height="50" relative="1" as="geometry">
            <mxPoint x="270" y="260" as="sourcePoint" />
            <mxPoint x="340" y="420" as="targetPoint" />
          </mxGeometry>
        </mxCell>
        <mxCell id="5PY2zAJ-nupySFWcDtGg-51" value="cart" style="rounded=0;whiteSpace=wrap;html=1;strokeWidth=4;fontStyle=1;fontSize=14;" vertex="1" parent="1">
          <mxGeometry x="-85" y="780" width="120" height="60" as="geometry" />
        </mxCell>
        <mxCell id="5PY2zAJ-nupySFWcDtGg-52" value="quantity" style="ellipse;whiteSpace=wrap;html=1;strokeWidth=4;fontStyle=1;fontSize=14;" vertex="1" parent="1">
          <mxGeometry x="-285" y="830" width="100" height="50" as="geometry" />
        </mxCell>
        <mxCell id="5PY2zAJ-nupySFWcDtGg-53" value="menu_id" style="ellipse;whiteSpace=wrap;html=1;strokeWidth=4;fontStyle=1;fontSize=14;" vertex="1" parent="1">
          <mxGeometry x="-285" y="760" width="100" height="50" as="geometry" />
        </mxCell>
        <mxCell id="5PY2zAJ-nupySFWcDtGg-54" value="cart_id" style="ellipse;whiteSpace=wrap;html=1;strokeWidth=4;fontStyle=1;fontSize=14;" vertex="1" parent="1">
          <mxGeometry x="-185" y="690" width="100" height="50" as="geometry" />
        </mxCell>
        <mxCell id="5PY2zAJ-nupySFWcDtGg-55" value="created_at" style="ellipse;whiteSpace=wrap;html=1;strokeWidth=4;fontStyle=1;fontSize=14;" vertex="1" parent="1">
          <mxGeometry x="45" y="890" width="100" height="50" as="geometry" />
        </mxCell>
        <mxCell id="5PY2zAJ-nupySFWcDtGg-56" value="update_at" style="ellipse;whiteSpace=wrap;html=1;strokeWidth=4;fontStyle=1;fontSize=14;" vertex="1" parent="1">
          <mxGeometry x="155" y="850" width="100" height="50" as="geometry" />
        </mxCell>
        <mxCell id="5PY2zAJ-nupySFWcDtGg-57" value="" style="endArrow=none;html=1;rounded=0;exitX=0;exitY=0.5;exitDx=0;exitDy=0;entryX=1;entryY=1;entryDx=0;entryDy=0;strokeWidth=4;fontStyle=1;fontSize=14;" edge="1" parent="1" source="5PY2zAJ-nupySFWcDtGg-56" target="5PY2zAJ-nupySFWcDtGg-51">
          <mxGeometry width="50" height="50" relative="1" as="geometry">
            <mxPoint x="185" y="840" as="sourcePoint" />
            <mxPoint x="255" y="840" as="targetPoint" />
          </mxGeometry>
        </mxCell>
        <mxCell id="5PY2zAJ-nupySFWcDtGg-58" value="" style="endArrow=none;html=1;rounded=0;entryX=0.5;entryY=1;entryDx=0;entryDy=0;exitX=0.5;exitY=0;exitDx=0;exitDy=0;strokeWidth=4;fontStyle=1;fontSize=14;" edge="1" parent="1" source="5PY2zAJ-nupySFWcDtGg-62" target="5PY2zAJ-nupySFWcDtGg-51">
          <mxGeometry width="50" height="50" relative="1" as="geometry">
            <mxPoint x="40" y="900" as="sourcePoint" />
            <mxPoint x="255" y="840" as="targetPoint" />
          </mxGeometry>
        </mxCell>
        <mxCell id="5PY2zAJ-nupySFWcDtGg-59" value="" style="endArrow=none;html=1;rounded=0;exitX=0.5;exitY=1;exitDx=0;exitDy=0;entryX=0;entryY=0.5;entryDx=0;entryDy=0;strokeWidth=4;fontStyle=1;fontSize=14;" edge="1" parent="1" source="5PY2zAJ-nupySFWcDtGg-54" target="5PY2zAJ-nupySFWcDtGg-51">
          <mxGeometry width="50" height="50" relative="1" as="geometry">
            <mxPoint x="205" y="890" as="sourcePoint" />
            <mxPoint x="255" y="840" as="targetPoint" />
          </mxGeometry>
        </mxCell>
        <mxCell id="5PY2zAJ-nupySFWcDtGg-60" value="" style="endArrow=none;html=1;rounded=0;exitX=1;exitY=0.5;exitDx=0;exitDy=0;entryX=0;entryY=0.75;entryDx=0;entryDy=0;strokeWidth=4;fontStyle=1;fontSize=14;" edge="1" parent="1" source="5PY2zAJ-nupySFWcDtGg-53" target="5PY2zAJ-nupySFWcDtGg-51">
          <mxGeometry width="50" height="50" relative="1" as="geometry">
            <mxPoint x="205" y="890" as="sourcePoint" />
            <mxPoint x="255" y="840" as="targetPoint" />
          </mxGeometry>
        </mxCell>
        <mxCell id="5PY2zAJ-nupySFWcDtGg-61" value="" style="endArrow=none;html=1;rounded=0;exitX=1;exitY=0.5;exitDx=0;exitDy=0;entryX=0;entryY=1;entryDx=0;entryDy=0;strokeWidth=4;fontStyle=1;fontSize=14;" edge="1" parent="1" source="5PY2zAJ-nupySFWcDtGg-52" target="5PY2zAJ-nupySFWcDtGg-51">
          <mxGeometry width="50" height="50" relative="1" as="geometry">
            <mxPoint x="205" y="890" as="sourcePoint" />
            <mxPoint x="255" y="840" as="targetPoint" />
          </mxGeometry>
        </mxCell>
        <mxCell id="5PY2zAJ-nupySFWcDtGg-62" value="subtotal_price" style="ellipse;whiteSpace=wrap;html=1;strokeWidth=4;fontStyle=1;fontSize=14;" vertex="1" parent="1">
          <mxGeometry x="-75" y="890" width="100" height="50" as="geometry" />
        </mxCell>
        <mxCell id="5PY2zAJ-nupySFWcDtGg-63" value="" style="endArrow=none;html=1;rounded=0;exitX=0.75;exitY=1;exitDx=0;exitDy=0;entryX=0.5;entryY=0;entryDx=0;entryDy=0;strokeWidth=4;fontStyle=1;fontSize=14;" edge="1" parent="1" source="5PY2zAJ-nupySFWcDtGg-51" target="5PY2zAJ-nupySFWcDtGg-55">
          <mxGeometry width="50" height="50" relative="1" as="geometry">
            <mxPoint x="185" y="760" as="sourcePoint" />
            <mxPoint x="235" y="710" as="targetPoint" />
          </mxGeometry>
        </mxCell>
        <mxCell id="5PY2zAJ-nupySFWcDtGg-64" value="memiliki" style="rhombus;whiteSpace=wrap;html=1;strokeWidth=4;fontStyle=1;fontSize=14;" vertex="1" parent="1">
          <mxGeometry x="-65" y="570" width="80" height="80" as="geometry" />
        </mxCell>
        <mxCell id="5PY2zAJ-nupySFWcDtGg-65" value="" style="endArrow=none;html=1;rounded=0;exitX=0.5;exitY=1;exitDx=0;exitDy=0;entryX=0.5;entryY=0;entryDx=0;entryDy=0;strokeWidth=4;fontStyle=1;fontSize=14;" edge="1" parent="1" source="5PY2zAJ-nupySFWcDtGg-31" target="5PY2zAJ-nupySFWcDtGg-64">
          <mxGeometry width="50" height="50" relative="1" as="geometry">
            <mxPoint x="-5" y="690" as="sourcePoint" />
            <mxPoint x="45" y="640" as="targetPoint" />
          </mxGeometry>
        </mxCell>
        <mxCell id="5PY2zAJ-nupySFWcDtGg-66" value="" style="endArrow=none;html=1;rounded=0;exitX=0.5;exitY=1;exitDx=0;exitDy=0;entryX=0.5;entryY=0;entryDx=0;entryDy=0;strokeWidth=4;fontStyle=1;fontSize=14;" edge="1" parent="1" source="5PY2zAJ-nupySFWcDtGg-64" target="5PY2zAJ-nupySFWcDtGg-51">
          <mxGeometry width="50" height="50" relative="1" as="geometry">
            <mxPoint x="-25" y="720" as="sourcePoint" />
            <mxPoint x="-15" y="650" as="targetPoint" />
          </mxGeometry>
        </mxCell>
        <mxCell id="5PY2zAJ-nupySFWcDtGg-67" value="" style="endArrow=none;html=1;rounded=0;entryX=0;entryY=0.5;entryDx=0;entryDy=0;exitX=1;exitY=0.5;exitDx=0;exitDy=0;strokeWidth=4;fontStyle=1;fontSize=14;" edge="1" parent="1" source="5PY2zAJ-nupySFWcDtGg-31" target="5PY2zAJ-nupySFWcDtGg-27">
          <mxGeometry width="50" height="50" relative="1" as="geometry">
            <mxPoint x="10" y="580" as="sourcePoint" />
            <mxPoint x="60" y="530" as="targetPoint" />
          </mxGeometry>
        </mxCell>
        <mxCell id="5PY2zAJ-nupySFWcDtGg-68" value="" style="endArrow=none;html=1;rounded=0;entryX=1;entryY=0.5;entryDx=0;entryDy=0;exitX=0;exitY=0.5;exitDx=0;exitDy=0;strokeWidth=4;fontStyle=1;fontSize=14;" edge="1" parent="1" source="5PY2zAJ-nupySFWcDtGg-16" target="5PY2zAJ-nupySFWcDtGg-27">
          <mxGeometry width="50" height="50" relative="1" as="geometry">
            <mxPoint x="440" y="460" as="sourcePoint" />
            <mxPoint x="195" y="310" as="targetPoint" />
          </mxGeometry>
        </mxCell>
        <mxCell id="5PY2zAJ-nupySFWcDtGg-69" value="order" style="rounded=0;whiteSpace=wrap;html=1;strokeWidth=4;fontStyle=1;fontSize=14;" vertex="1" parent="1">
          <mxGeometry x="543" y="780" width="120" height="60" as="geometry" />
        </mxCell>
        <mxCell id="5PY2zAJ-nupySFWcDtGg-71" value="order_id" style="ellipse;whiteSpace=wrap;html=1;strokeWidth=4;fontStyle=1;fontSize=14;" vertex="1" parent="1">
          <mxGeometry x="703" y="640" width="100" height="50" as="geometry" />
        </mxCell>
        <mxCell id="5PY2zAJ-nupySFWcDtGg-72" value="chasier_id" style="ellipse;whiteSpace=wrap;html=1;strokeWidth=4;fontStyle=1;fontSize=14;" vertex="1" parent="1">
          <mxGeometry x="763" y="720" width="100" height="50" as="geometry" />
        </mxCell>
        <mxCell id="5PY2zAJ-nupySFWcDtGg-75" value="order_id" style="ellipse;whiteSpace=wrap;html=1;strokeWidth=4;fontStyle=1;fontSize=14;" vertex="1" parent="1">
          <mxGeometry x="-205" y="890" width="100" height="50" as="geometry" />
        </mxCell>
        <mxCell id="5PY2zAJ-nupySFWcDtGg-76" value="" style="endArrow=none;html=1;rounded=0;exitX=0.25;exitY=1;exitDx=0;exitDy=0;entryX=0.636;entryY=0.06;entryDx=0;entryDy=0;entryPerimeter=0;strokeWidth=4;fontStyle=1;fontSize=14;" edge="1" parent="1" source="5PY2zAJ-nupySFWcDtGg-51" target="5PY2zAJ-nupySFWcDtGg-75">
          <mxGeometry width="50" height="50" relative="1" as="geometry">
            <mxPoint x="495" y="770" as="sourcePoint" />
            <mxPoint x="545" y="720" as="targetPoint" />
          </mxGeometry>
        </mxCell>
        <mxCell id="5PY2zAJ-nupySFWcDtGg-77" value="created_at" style="ellipse;whiteSpace=wrap;html=1;strokeWidth=4;fontStyle=1;fontSize=14;" vertex="1" parent="1">
          <mxGeometry x="763" y="800" width="100" height="50" as="geometry" />
        </mxCell>
        <mxCell id="5PY2zAJ-nupySFWcDtGg-78" value="update_at" style="ellipse;whiteSpace=wrap;html=1;strokeWidth=4;fontStyle=1;fontSize=14;" vertex="1" parent="1">
          <mxGeometry x="703" y="880" width="100" height="50" as="geometry" />
        </mxCell>
        <mxCell id="5PY2zAJ-nupySFWcDtGg-81" value="memiliki" style="strokeWidth=4;html=1;shape=mxgraph.flowchart.decision;whiteSpace=wrap;fontStyle=1;fontSize=14;" vertex="1" parent="1">
          <mxGeometry x="220" y="760" width="100" height="100" as="geometry" />
        </mxCell>
        <mxCell id="5PY2zAJ-nupySFWcDtGg-82" value="" style="endArrow=none;html=1;rounded=0;exitX=1;exitY=0.5;exitDx=0;exitDy=0;entryX=0;entryY=0.5;entryDx=0;entryDy=0;entryPerimeter=0;strokeWidth=4;fontStyle=1;fontSize=14;" edge="1" parent="1" source="5PY2zAJ-nupySFWcDtGg-51" target="5PY2zAJ-nupySFWcDtGg-81">
          <mxGeometry width="50" height="50" relative="1" as="geometry">
            <mxPoint x="500" y="790" as="sourcePoint" />
            <mxPoint x="550" y="740" as="targetPoint" />
          </mxGeometry>
        </mxCell>
        <mxCell id="5PY2zAJ-nupySFWcDtGg-83" value="" style="endArrow=none;html=1;rounded=0;exitX=0;exitY=0.5;exitDx=0;exitDy=0;entryX=1;entryY=0.5;entryDx=0;entryDy=0;entryPerimeter=0;strokeWidth=4;fontStyle=1;fontSize=14;" edge="1" parent="1" source="5PY2zAJ-nupySFWcDtGg-69" target="5PY2zAJ-nupySFWcDtGg-81">
          <mxGeometry width="50" height="50" relative="1" as="geometry">
            <mxPoint x="-150" y="820" as="sourcePoint" />
            <mxPoint x="290" y="820" as="targetPoint" />
          </mxGeometry>
        </mxCell>
        <mxCell id="5PY2zAJ-nupySFWcDtGg-84" value="" style="endArrow=none;html=1;rounded=0;exitX=1;exitY=0;exitDx=0;exitDy=0;entryX=0;entryY=0.5;entryDx=0;entryDy=0;strokeWidth=4;fontStyle=1;fontSize=14;" edge="1" parent="1" source="5PY2zAJ-nupySFWcDtGg-69" target="5PY2zAJ-nupySFWcDtGg-71">
          <mxGeometry width="50" height="50" relative="1" as="geometry">
            <mxPoint x="323" y="790" as="sourcePoint" />
            <mxPoint x="373" y="740" as="targetPoint" />
          </mxGeometry>
        </mxCell>
        <mxCell id="5PY2zAJ-nupySFWcDtGg-85" value="" style="endArrow=none;html=1;rounded=0;exitX=1;exitY=0.25;exitDx=0;exitDy=0;entryX=0;entryY=0.5;entryDx=0;entryDy=0;strokeWidth=4;fontStyle=1;fontSize=14;" edge="1" parent="1" source="5PY2zAJ-nupySFWcDtGg-69" target="5PY2zAJ-nupySFWcDtGg-72">
          <mxGeometry width="50" height="50" relative="1" as="geometry">
            <mxPoint x="323" y="790" as="sourcePoint" />
            <mxPoint x="373" y="740" as="targetPoint" />
          </mxGeometry>
        </mxCell>
        <mxCell id="5PY2zAJ-nupySFWcDtGg-86" value="" style="endArrow=none;html=1;rounded=0;entryX=1;entryY=0.75;entryDx=0;entryDy=0;exitX=0;exitY=0.5;exitDx=0;exitDy=0;strokeWidth=4;fontStyle=1;fontSize=14;" edge="1" parent="1" source="5PY2zAJ-nupySFWcDtGg-77" target="5PY2zAJ-nupySFWcDtGg-69">
          <mxGeometry width="50" height="50" relative="1" as="geometry">
            <mxPoint x="323" y="790" as="sourcePoint" />
            <mxPoint x="373" y="740" as="targetPoint" />
          </mxGeometry>
        </mxCell>
        <mxCell id="5PY2zAJ-nupySFWcDtGg-87" value="" style="endArrow=none;html=1;rounded=0;exitX=1;exitY=1;exitDx=0;exitDy=0;entryX=0;entryY=0.5;entryDx=0;entryDy=0;strokeWidth=4;fontStyle=1;fontSize=14;" edge="1" parent="1" source="5PY2zAJ-nupySFWcDtGg-69" target="5PY2zAJ-nupySFWcDtGg-78">
          <mxGeometry width="50" height="50" relative="1" as="geometry">
            <mxPoint x="323" y="790" as="sourcePoint" />
            <mxPoint x="373" y="740" as="targetPoint" />
          </mxGeometry>
        </mxCell>
        <mxCell id="5PY2zAJ-nupySFWcDtGg-88" value="membuat" style="rhombus;whiteSpace=wrap;html=1;strokeWidth=4;fontStyle=1;fontSize=14;" vertex="1" parent="1">
          <mxGeometry x="563" y="600" width="80" height="80" as="geometry" />
        </mxCell>
        <mxCell id="5PY2zAJ-nupySFWcDtGg-89" value="" style="endArrow=none;html=1;rounded=0;entryX=0.5;entryY=1;entryDx=0;entryDy=0;exitX=0.5;exitY=0;exitDx=0;exitDy=0;strokeWidth=4;fontStyle=1;fontSize=14;" edge="1" parent="1" source="5PY2zAJ-nupySFWcDtGg-88" target="5PY2zAJ-nupySFWcDtGg-16">
          <mxGeometry width="50" height="50" relative="1" as="geometry">
            <mxPoint x="323" y="790" as="sourcePoint" />
            <mxPoint x="373" y="740" as="targetPoint" />
          </mxGeometry>
        </mxCell>
        <mxCell id="5PY2zAJ-nupySFWcDtGg-90" value="" style="endArrow=none;html=1;rounded=0;entryX=0.5;entryY=1;entryDx=0;entryDy=0;exitX=0.5;exitY=0;exitDx=0;exitDy=0;strokeWidth=4;fontStyle=1;fontSize=14;" edge="1" parent="1" source="5PY2zAJ-nupySFWcDtGg-69" target="5PY2zAJ-nupySFWcDtGg-88">
          <mxGeometry width="50" height="50" relative="1" as="geometry">
            <mxPoint x="613" y="610" as="sourcePoint" />
            <mxPoint x="613" y="505" as="targetPoint" />
          </mxGeometry>
        </mxCell>
        <mxCell id="5PY2zAJ-nupySFWcDtGg-91" value="transaction" style="rounded=0;whiteSpace=wrap;html=1;strokeWidth=4;fontStyle=1;fontSize=14;" vertex="1" parent="1">
          <mxGeometry x="543" y="1115" width="120" height="60" as="geometry" />
        </mxCell>
        <mxCell id="5PY2zAJ-nupySFWcDtGg-92" value="transaction_id" style="ellipse;whiteSpace=wrap;html=1;strokeWidth=4;fontStyle=1;fontSize=14;" vertex="1" parent="1">
          <mxGeometry x="663" y="970" width="100" height="50" as="geometry" />
        </mxCell>
        <mxCell id="5PY2zAJ-nupySFWcDtGg-93" value="order_id" style="ellipse;whiteSpace=wrap;html=1;strokeWidth=4;fontStyle=1;fontSize=14;" vertex="1" parent="1">
          <mxGeometry x="793" y="990" width="100" height="50" as="geometry" />
        </mxCell>
        <mxCell id="5PY2zAJ-nupySFWcDtGg-94" value="buyer_name" style="ellipse;whiteSpace=wrap;html=1;strokeWidth=4;fontStyle=1;fontSize=14;" vertex="1" parent="1">
          <mxGeometry x="883" y="1200" width="100" height="50" as="geometry" />
        </mxCell>
        <mxCell id="5PY2zAJ-nupySFWcDtGg-96" value="total_price" style="ellipse;whiteSpace=wrap;html=1;strokeWidth=4;fontStyle=1;fontSize=14;" vertex="1" parent="1">
          <mxGeometry x="763" y="1250" width="100" height="50" as="geometry" />
        </mxCell>
        <mxCell id="5PY2zAJ-nupySFWcDtGg-97" value="created_at" style="ellipse;whiteSpace=wrap;html=1;strokeWidth=4;fontStyle=1;fontSize=14;" vertex="1" parent="1">
          <mxGeometry x="620" y="1250" width="100" height="50" as="geometry" />
        </mxCell>
        <mxCell id="5PY2zAJ-nupySFWcDtGg-98" value="update_at" style="ellipse;whiteSpace=wrap;html=1;strokeWidth=4;fontStyle=1;fontSize=14;" vertex="1" parent="1">
          <mxGeometry x="493" y="1270" width="100" height="50" as="geometry" />
        </mxCell>
        <mxCell id="5PY2zAJ-nupySFWcDtGg-99" value="" style="endArrow=none;html=1;rounded=0;entryX=0.75;entryY=0;entryDx=0;entryDy=0;exitX=0.5;exitY=1;exitDx=0;exitDy=0;strokeWidth=4;fontStyle=1;fontSize=14;" edge="1" parent="1" source="5PY2zAJ-nupySFWcDtGg-92" target="5PY2zAJ-nupySFWcDtGg-91">
          <mxGeometry width="50" height="50" relative="1" as="geometry">
            <mxPoint x="313" y="1150" as="sourcePoint" />
            <mxPoint x="363" y="1100" as="targetPoint" />
          </mxGeometry>
        </mxCell>
        <mxCell id="5PY2zAJ-nupySFWcDtGg-100" value="" style="endArrow=none;html=1;rounded=0;entryX=1;entryY=0;entryDx=0;entryDy=0;exitX=0;exitY=0.5;exitDx=0;exitDy=0;strokeWidth=4;fontStyle=1;fontSize=14;" edge="1" parent="1" source="5PY2zAJ-nupySFWcDtGg-93" target="5PY2zAJ-nupySFWcDtGg-91">
          <mxGeometry width="50" height="50" relative="1" as="geometry">
            <mxPoint x="313" y="1150" as="sourcePoint" />
            <mxPoint x="363" y="1100" as="targetPoint" />
          </mxGeometry>
        </mxCell>
        <mxCell id="5PY2zAJ-nupySFWcDtGg-101" value="" style="endArrow=none;html=1;rounded=0;entryX=0.75;entryY=1;entryDx=0;entryDy=0;exitX=0;exitY=0.5;exitDx=0;exitDy=0;strokeWidth=4;fontStyle=1;fontSize=14;" edge="1" parent="1" source="5PY2zAJ-nupySFWcDtGg-94" target="5PY2zAJ-nupySFWcDtGg-91">
          <mxGeometry width="50" height="50" relative="1" as="geometry">
            <mxPoint x="313" y="1150" as="sourcePoint" />
            <mxPoint x="363" y="1100" as="targetPoint" />
          </mxGeometry>
        </mxCell>
        <mxCell id="5PY2zAJ-nupySFWcDtGg-102" value="" style="endArrow=none;html=1;rounded=0;exitX=0.5;exitY=0;exitDx=0;exitDy=0;entryX=0.5;entryY=1;entryDx=0;entryDy=0;strokeWidth=4;fontStyle=1;fontSize=14;" edge="1" parent="1" source="5PY2zAJ-nupySFWcDtGg-96" target="5PY2zAJ-nupySFWcDtGg-91">
          <mxGeometry width="50" height="50" relative="1" as="geometry">
            <mxPoint x="313" y="1150" as="sourcePoint" />
            <mxPoint x="633" y="1160" as="targetPoint" />
          </mxGeometry>
        </mxCell>
        <mxCell id="5PY2zAJ-nupySFWcDtGg-103" value="" style="endArrow=none;html=1;rounded=0;exitX=0.5;exitY=0;exitDx=0;exitDy=0;entryX=0.25;entryY=1;entryDx=0;entryDy=0;strokeWidth=4;fontStyle=1;fontSize=14;" edge="1" parent="1" source="5PY2zAJ-nupySFWcDtGg-97" target="5PY2zAJ-nupySFWcDtGg-91">
          <mxGeometry width="50" height="50" relative="1" as="geometry">
            <mxPoint x="108" y="1165" as="sourcePoint" />
            <mxPoint x="428" y="1175" as="targetPoint" />
          </mxGeometry>
        </mxCell>
        <mxCell id="5PY2zAJ-nupySFWcDtGg-104" value="" style="endArrow=none;html=1;rounded=0;entryX=0.5;entryY=0;entryDx=0;entryDy=0;exitX=0;exitY=1;exitDx=0;exitDy=0;strokeWidth=4;fontStyle=1;fontSize=14;" edge="1" parent="1" source="5PY2zAJ-nupySFWcDtGg-91" target="5PY2zAJ-nupySFWcDtGg-98">
          <mxGeometry width="50" height="50" relative="1" as="geometry">
            <mxPoint x="108" y="1165" as="sourcePoint" />
            <mxPoint x="158" y="1115" as="targetPoint" />
          </mxGeometry>
        </mxCell>
        <mxCell id="5PY2zAJ-nupySFWcDtGg-105" value="" style="endArrow=none;html=1;rounded=0;entryX=0.5;entryY=1;entryDx=0;entryDy=0;exitX=0.5;exitY=0;exitDx=0;exitDy=0;strokeWidth=4;fontStyle=1;fontSize=14;" edge="1" parent="1" source="5PY2zAJ-nupySFWcDtGg-106" target="5PY2zAJ-nupySFWcDtGg-69">
          <mxGeometry width="50" height="50" relative="1" as="geometry">
            <mxPoint x="313" y="970" as="sourcePoint" />
            <mxPoint x="363" y="920" as="targetPoint" />
          </mxGeometry>
        </mxCell>
        <mxCell id="5PY2zAJ-nupySFWcDtGg-106" value="membuat" style="rhombus;whiteSpace=wrap;html=1;strokeWidth=4;fontStyle=1;fontSize=14;" vertex="1" parent="1">
          <mxGeometry x="563" y="930" width="80" height="80" as="geometry" />
        </mxCell>
        <mxCell id="5PY2zAJ-nupySFWcDtGg-107" value="" style="endArrow=none;html=1;rounded=0;entryX=0.5;entryY=1;entryDx=0;entryDy=0;exitX=0.5;exitY=0;exitDx=0;exitDy=0;strokeWidth=4;fontStyle=1;fontSize=14;" edge="1" parent="1" source="5PY2zAJ-nupySFWcDtGg-91" target="5PY2zAJ-nupySFWcDtGg-106">
          <mxGeometry width="50" height="50" relative="1" as="geometry">
            <mxPoint x="313" y="970" as="sourcePoint" />
            <mxPoint x="363" y="920" as="targetPoint" />
          </mxGeometry>
        </mxCell>
        <mxCell id="5PY2zAJ-nupySFWcDtGg-108" value="receipt" style="rounded=0;whiteSpace=wrap;html=1;strokeWidth=4;fontStyle=1;fontSize=14;" vertex="1" parent="1">
          <mxGeometry x="5" y="1115" width="120" height="60" as="geometry" />
        </mxCell>
        <mxCell id="5PY2zAJ-nupySFWcDtGg-109" value="receipt_id" style="ellipse;whiteSpace=wrap;html=1;strokeWidth=4;fontStyle=1;fontSize=14;" vertex="1" parent="1">
          <mxGeometry x="15" y="1000" width="100" height="50" as="geometry" />
        </mxCell>
        <mxCell id="5PY2zAJ-nupySFWcDtGg-110" value="transaction_id" style="ellipse;whiteSpace=wrap;html=1;strokeWidth=4;fontStyle=1;fontSize=14;" vertex="1" parent="1">
          <mxGeometry x="-165" y="1050" width="100" height="50" as="geometry" />
        </mxCell>
        <mxCell id="5PY2zAJ-nupySFWcDtGg-111" value="created_at" style="ellipse;whiteSpace=wrap;html=1;strokeWidth=4;fontStyle=1;fontSize=14;" vertex="1" parent="1">
          <mxGeometry x="-170" y="1175" width="100" height="50" as="geometry" />
        </mxCell>
        <mxCell id="5PY2zAJ-nupySFWcDtGg-112" value="update_at" style="ellipse;whiteSpace=wrap;html=1;strokeWidth=4;fontStyle=1;fontSize=14;" vertex="1" parent="1">
          <mxGeometry x="15" y="1235" width="100" height="50" as="geometry" />
        </mxCell>
        <mxCell id="5PY2zAJ-nupySFWcDtGg-113" value="" style="endArrow=none;html=1;rounded=0;exitX=0.5;exitY=1;exitDx=0;exitDy=0;entryX=0.5;entryY=0;entryDx=0;entryDy=0;strokeWidth=4;fontStyle=1;fontSize=14;" edge="1" parent="1" source="5PY2zAJ-nupySFWcDtGg-109" target="5PY2zAJ-nupySFWcDtGg-108">
          <mxGeometry width="50" height="50" relative="1" as="geometry">
            <mxPoint x="490" y="970" as="sourcePoint" />
            <mxPoint x="540" y="920" as="targetPoint" />
          </mxGeometry>
        </mxCell>
        <mxCell id="5PY2zAJ-nupySFWcDtGg-114" value="" style="endArrow=none;html=1;rounded=0;exitX=1;exitY=0.5;exitDx=0;exitDy=0;entryX=0;entryY=0;entryDx=0;entryDy=0;strokeWidth=4;fontStyle=1;fontSize=14;" edge="1" parent="1" source="5PY2zAJ-nupySFWcDtGg-110" target="5PY2zAJ-nupySFWcDtGg-108">
          <mxGeometry width="50" height="50" relative="1" as="geometry">
            <mxPoint x="-55" y="1090" as="sourcePoint" />
            <mxPoint x="335" y="935" as="targetPoint" />
          </mxGeometry>
        </mxCell>
        <mxCell id="5PY2zAJ-nupySFWcDtGg-115" value="" style="endArrow=none;html=1;rounded=0;exitX=0;exitY=1;exitDx=0;exitDy=0;entryX=1;entryY=0.5;entryDx=0;entryDy=0;strokeWidth=4;fontStyle=1;fontSize=14;" edge="1" parent="1" source="5PY2zAJ-nupySFWcDtGg-108" target="5PY2zAJ-nupySFWcDtGg-111">
          <mxGeometry width="50" height="50" relative="1" as="geometry">
            <mxPoint x="285" y="985" as="sourcePoint" />
            <mxPoint x="335" y="935" as="targetPoint" />
          </mxGeometry>
        </mxCell>
        <mxCell id="5PY2zAJ-nupySFWcDtGg-116" value="" style="endArrow=none;html=1;rounded=0;exitX=0.5;exitY=1;exitDx=0;exitDy=0;entryX=0.5;entryY=0;entryDx=0;entryDy=0;strokeWidth=4;fontStyle=1;fontSize=14;" edge="1" parent="1" source="5PY2zAJ-nupySFWcDtGg-108" target="5PY2zAJ-nupySFWcDtGg-112">
          <mxGeometry width="50" height="50" relative="1" as="geometry">
            <mxPoint x="285" y="985" as="sourcePoint" />
            <mxPoint x="335" y="935" as="targetPoint" />
          </mxGeometry>
        </mxCell>
        <mxCell id="5PY2zAJ-nupySFWcDtGg-118" value="membuat" style="rhombus;whiteSpace=wrap;html=1;strokeWidth=4;fontStyle=1;fontSize=14;" vertex="1" parent="1">
          <mxGeometry x="285" y="1105" width="80" height="80" as="geometry" />
        </mxCell>
        <mxCell id="5PY2zAJ-nupySFWcDtGg-119" value="" style="endArrow=none;html=1;rounded=0;entryX=0;entryY=0.5;entryDx=0;entryDy=0;exitX=1;exitY=0.5;exitDx=0;exitDy=0;strokeWidth=4;fontStyle=1;fontSize=14;" edge="1" parent="1" source="5PY2zAJ-nupySFWcDtGg-108" target="5PY2zAJ-nupySFWcDtGg-118">
          <mxGeometry width="50" height="50" relative="1" as="geometry">
            <mxPoint x="-125" y="985" as="sourcePoint" />
            <mxPoint x="-75" y="935" as="targetPoint" />
          </mxGeometry>
        </mxCell>
        <mxCell id="5PY2zAJ-nupySFWcDtGg-120" value="" style="endArrow=none;html=1;rounded=0;exitX=0;exitY=0.5;exitDx=0;exitDy=0;strokeWidth=4;fontStyle=1;fontSize=14;entryX=1;entryY=0.5;entryDx=0;entryDy=0;" edge="1" parent="1" source="5PY2zAJ-nupySFWcDtGg-91" target="5PY2zAJ-nupySFWcDtGg-118">
          <mxGeometry width="50" height="50" relative="1" as="geometry">
            <mxPoint x="-42" y="1155" as="sourcePoint" />
            <mxPoint x="350" y="1145" as="targetPoint" />
          </mxGeometry>
        </mxCell>
        <mxCell id="5PY2zAJ-nupySFWcDtGg-121" value="" style="endArrow=none;html=1;rounded=0;entryX=0.5;entryY=0;entryDx=0;entryDy=0;strokeWidth=4;fontStyle=1;fontSize=14;exitX=0.5;exitY=1;exitDx=0;exitDy=0;" edge="1" parent="1" source="5PY2zAJ-nupySFWcDtGg-118" target="5PY2zAJ-nupySFWcDtGg-123">
          <mxGeometry width="50" height="50" relative="1" as="geometry">
            <mxPoint x="320" y="1180" as="sourcePoint" />
            <mxPoint x="320" y="1320" as="targetPoint" />
          </mxGeometry>
        </mxCell>
        <mxCell id="5PY2zAJ-nupySFWcDtGg-123" value="report" style="rounded=0;whiteSpace=wrap;html=1;strokeWidth=4;fontStyle=1;fontSize=14;" vertex="1" parent="1">
          <mxGeometry x="265" y="1325" width="120" height="60" as="geometry" />
        </mxCell>
        <mxCell id="5PY2zAJ-nupySFWcDtGg-126" value="memiliki" style="rhombus;whiteSpace=wrap;html=1;strokeWidth=4;fontStyle=1;fontSize=14;" vertex="1" parent="1">
          <mxGeometry x="763" y="1105" width="80" height="80" as="geometry" />
        </mxCell>
        <mxCell id="5PY2zAJ-nupySFWcDtGg-127" value="" style="endArrow=none;html=1;rounded=0;exitX=1;exitY=0.5;exitDx=0;exitDy=0;entryX=0;entryY=0.5;entryDx=0;entryDy=0;strokeWidth=4;fontStyle=1;fontSize=14;" edge="1" parent="1" source="5PY2zAJ-nupySFWcDtGg-91" target="5PY2zAJ-nupySFWcDtGg-126">
          <mxGeometry width="50" height="50" relative="1" as="geometry">
            <mxPoint x="783" y="1240" as="sourcePoint" />
            <mxPoint x="833" y="1190" as="targetPoint" />
          </mxGeometry>
        </mxCell>
        <mxCell id="5PY2zAJ-nupySFWcDtGg-128" value="month" style="rounded=0;whiteSpace=wrap;html=1;strokeWidth=4;fontStyle=1;fontSize=14;" vertex="1" parent="1">
          <mxGeometry x="910" y="1115" width="120" height="60" as="geometry" />
        </mxCell>
        <mxCell id="5PY2zAJ-nupySFWcDtGg-129" value="" style="endArrow=none;html=1;rounded=0;exitX=1;exitY=0.5;exitDx=0;exitDy=0;entryX=0;entryY=0.5;entryDx=0;entryDy=0;strokeWidth=4;fontStyle=1;fontSize=14;" edge="1" parent="1" source="5PY2zAJ-nupySFWcDtGg-126" target="5PY2zAJ-nupySFWcDtGg-128">
          <mxGeometry width="50" height="50" relative="1" as="geometry">
            <mxPoint x="783" y="1240" as="sourcePoint" />
            <mxPoint x="833" y="1190" as="targetPoint" />
          </mxGeometry>
        </mxCell>
        <mxCell id="5PY2zAJ-nupySFWcDtGg-131" value="month_id" style="ellipse;whiteSpace=wrap;html=1;strokeWidth=4;fontStyle=1;fontSize=14;" vertex="1" parent="1">
          <mxGeometry x="1090" y="1055" width="100" height="50" as="geometry" />
        </mxCell>
        <mxCell id="5PY2zAJ-nupySFWcDtGg-133" value="name" style="ellipse;whiteSpace=wrap;html=1;strokeWidth=4;fontStyle=1;fontSize=14;" vertex="1" parent="1">
          <mxGeometry x="1090" y="1185" width="100" height="50" as="geometry" />
        </mxCell>
        <mxCell id="5PY2zAJ-nupySFWcDtGg-134" value="" style="endArrow=none;html=1;rounded=0;exitX=1;exitY=0.25;exitDx=0;exitDy=0;entryX=0;entryY=0.5;entryDx=0;entryDy=0;strokeWidth=4;fontStyle=1;fontSize=14;" edge="1" parent="1" source="5PY2zAJ-nupySFWcDtGg-128" target="5PY2zAJ-nupySFWcDtGg-131">
          <mxGeometry width="50" height="50" relative="1" as="geometry">
            <mxPoint x="1073" y="1080" as="sourcePoint" />
            <mxPoint x="1123" y="1030" as="targetPoint" />
          </mxGeometry>
        </mxCell>
        <mxCell id="5PY2zAJ-nupySFWcDtGg-135" value="" style="endArrow=none;html=1;rounded=0;exitX=1;exitY=0.75;exitDx=0;exitDy=0;entryX=0;entryY=0.5;entryDx=0;entryDy=0;strokeWidth=4;fontStyle=1;fontSize=14;" edge="1" parent="1" source="5PY2zAJ-nupySFWcDtGg-128" target="5PY2zAJ-nupySFWcDtGg-133">
          <mxGeometry width="50" height="50" relative="1" as="geometry">
            <mxPoint x="1073" y="1080" as="sourcePoint" />
            <mxPoint x="1123" y="1030" as="targetPoint" />
          </mxGeometry>
        </mxCell>
        <mxCell id="5PY2zAJ-nupySFWcDtGg-136" value="month_id" style="ellipse;whiteSpace=wrap;html=1;strokeWidth=4;fontStyle=1;fontSize=14;" vertex="1" parent="1">
          <mxGeometry x="853" y="1050" width="100" height="50" as="geometry" />
        </mxCell>
        <mxCell id="5PY2zAJ-nupySFWcDtGg-137" value="" style="endArrow=none;html=1;rounded=0;exitX=0;exitY=0.5;exitDx=0;exitDy=0;entryX=1;entryY=0.25;entryDx=0;entryDy=0;strokeWidth=4;fontStyle=1;fontSize=14;" edge="1" parent="1" source="5PY2zAJ-nupySFWcDtGg-136" target="5PY2zAJ-nupySFWcDtGg-91">
          <mxGeometry width="50" height="50" relative="1" as="geometry">
            <mxPoint x="1073" y="1240" as="sourcePoint" />
            <mxPoint x="1123" y="1190" as="targetPoint" />
          </mxGeometry>
        </mxCell>
        <mxCell id="5PY2zAJ-nupySFWcDtGg-138" value="income_id" style="ellipse;whiteSpace=wrap;html=1;strokeWidth=4;fontStyle=1;fontSize=14;" vertex="1" parent="1">
          <mxGeometry x="85" y="1390" width="100" height="45" as="geometry" />
        </mxCell>
        <mxCell id="5PY2zAJ-nupySFWcDtGg-139" value="" style="endArrow=none;html=1;rounded=0;exitX=1;exitY=0.5;exitDx=0;exitDy=0;entryX=0;entryY=0;entryDx=0;entryDy=0;strokeWidth=4;fontStyle=1;fontSize=14;" edge="1" parent="1" source="5PY2zAJ-nupySFWcDtGg-138" target="5PY2zAJ-nupySFWcDtGg-123">
          <mxGeometry width="50" height="50" relative="1" as="geometry">
            <mxPoint x="475" y="1275" as="sourcePoint" />
            <mxPoint x="525" y="1225" as="targetPoint" />
          </mxGeometry>
        </mxCell>
        <mxCell id="5PY2zAJ-nupySFWcDtGg-142" value="created_at" style="ellipse;whiteSpace=wrap;html=1;strokeWidth=4;fontStyle=1;fontSize=14;" vertex="1" parent="1">
          <mxGeometry x="430" y="1387.5" width="100" height="50" as="geometry" />
        </mxCell>
        <mxCell id="5PY2zAJ-nupySFWcDtGg-144" value="" style="endArrow=none;html=1;rounded=0;exitX=1;exitY=0;exitDx=0;exitDy=0;entryX=0.5;entryY=0;entryDx=0;entryDy=0;strokeWidth=4;fontStyle=1;fontSize=14;" edge="1" parent="1" source="5PY2zAJ-nupySFWcDtGg-123" target="5PY2zAJ-nupySFWcDtGg-142">
          <mxGeometry width="50" height="50" relative="1" as="geometry">
            <mxPoint x="475" y="1275" as="sourcePoint" />
            <mxPoint x="525" y="1225" as="targetPoint" />
          </mxGeometry>
        </mxCell>
        <mxCell id="5PY2zAJ-nupySFWcDtGg-145" value="" style="endArrow=none;html=1;rounded=0;entryX=0.25;entryY=1;entryDx=0;entryDy=0;exitX=0.5;exitY=0;exitDx=0;exitDy=0;strokeWidth=4;fontStyle=1;fontSize=14;" edge="1" parent="1" source="5PY2zAJ-nupySFWcDtGg-146" target="5PY2zAJ-nupySFWcDtGg-123">
          <mxGeometry width="50" height="50" relative="1" as="geometry">
            <mxPoint x="225" y="1445" as="sourcePoint" />
            <mxPoint x="525" y="1225" as="targetPoint" />
          </mxGeometry>
        </mxCell>
        <mxCell id="5PY2zAJ-nupySFWcDtGg-146" value="transaction_id" style="ellipse;whiteSpace=wrap;html=1;strokeWidth=4;fontStyle=1;fontSize=14;" vertex="1" parent="1">
          <mxGeometry x="210" y="1455" width="100" height="50" as="geometry" />
        </mxCell>
        <mxCell id="5PY2zAJ-nupySFWcDtGg-147" value="amount" style="ellipse;whiteSpace=wrap;html=1;strokeWidth=4;fontStyle=1;fontSize=14;" vertex="1" parent="1">
          <mxGeometry x="330" y="1455" width="100" height="50" as="geometry" />
        </mxCell>
        <mxCell id="5PY2zAJ-nupySFWcDtGg-148" value="" style="endArrow=none;html=1;rounded=0;exitX=0.75;exitY=1;exitDx=0;exitDy=0;entryX=0.5;entryY=0;entryDx=0;entryDy=0;strokeWidth=4;fontStyle=1;fontSize=14;" edge="1" parent="1" source="5PY2zAJ-nupySFWcDtGg-123" target="5PY2zAJ-nupySFWcDtGg-147">
          <mxGeometry width="50" height="50" relative="1" as="geometry">
            <mxPoint x="475" y="1275" as="sourcePoint" />
            <mxPoint x="525" y="1225" as="targetPoint" />
          </mxGeometry>
        </mxCell>
        <mxCell id="5PY2zAJ-nupySFWcDtGg-155" value="aplikasi rumah makan" style="rounded=0;whiteSpace=wrap;html=1;strokeWidth=6;fontStyle=1;fontSize=17;" vertex="1" parent="1">
          <mxGeometry x="-215" y="180" width="120" height="60" as="geometry" />
        </mxCell>
      </root>
    </mxGraphModel>
  </diagram>
</mxfile>
